<svg class="icon-vec" width="6.9375rem" height="3.125rem" viewBox="0 0 111 50" fill="none" xmlns="http://www.w3.org/2000/svg">
<g clip-path="url(#clip0_52_19209)">
<rect x="17" y="15" width="94" height="35" rx="4" fill="#2F8A3D"/>
<path d="M27.2912 38.5V25.4091H29.6626V30.951H35.7287V25.4091H38.1065V38.5H35.7287V32.9389H29.6626V38.5H27.2912ZM45.11 38.6918C44.1257 38.6918 43.2755 38.4872 42.5596 38.0781C41.848 37.6648 41.3004 37.081 40.9169 36.3267C40.5333 35.5682 40.3416 34.6754 40.3416 33.6484C40.3416 32.6385 40.5333 31.7521 40.9169 30.9893C41.3046 30.2223 41.8458 29.6257 42.5404 29.1996C43.235 28.7692 44.0511 28.554 44.9886 28.554C45.5937 28.554 46.1647 28.652 46.7017 28.848C47.2429 29.0398 47.7201 29.3381 48.1335 29.7429C48.5511 30.1477 48.8792 30.6634 49.1179 31.2898C49.3565 31.9119 49.4758 32.6534 49.4758 33.5142V34.2237H41.4282V32.6641H47.2578C47.2535 32.2209 47.1576 31.8267 46.9701 31.4815C46.7826 31.1321 46.5206 30.8572 46.1839 30.657C45.8515 30.4567 45.4637 30.3565 45.0206 30.3565C44.5475 30.3565 44.1321 30.4716 43.7741 30.7017C43.4162 30.9276 43.137 31.2259 42.9367 31.5966C42.7407 31.9631 42.6406 32.3658 42.6363 32.8047V34.1662C42.6363 34.7372 42.7407 35.2273 42.9495 35.6364C43.1583 36.0412 43.4502 36.3523 43.8252 36.5696C44.2002 36.7827 44.6392 36.8892 45.142 36.8892C45.4787 36.8892 45.7833 36.8423 46.0561 36.7486C46.3288 36.6506 46.5653 36.5078 46.7656 36.3203C46.9659 36.1328 47.1171 35.9006 47.2194 35.6236L49.3799 35.8665C49.2436 36.4375 48.9836 36.9361 48.6001 37.3622C48.2208 37.7841 47.735 38.1122 47.1427 38.3466C46.5504 38.5767 45.8728 38.6918 45.11 38.6918ZM54.4387 38.6982C53.8165 38.6982 53.2561 38.5874 52.7576 38.3658C52.2632 38.1399 51.8712 37.8075 51.5814 37.3686C51.2959 36.9297 51.1531 36.3885 51.1531 35.745C51.1531 35.1911 51.2554 34.733 51.46 34.3707C51.6645 34.0085 51.9436 33.7188 52.2973 33.5014C52.651 33.2841 53.0495 33.12 53.4926 33.0092C53.9401 32.8942 54.4024 32.8111 54.8797 32.7599C55.455 32.7003 55.9216 32.647 56.2796 32.6001C56.6375 32.549 56.8975 32.4723 57.0594 32.37C57.2256 32.2635 57.3087 32.0994 57.3087 31.8778V31.8395C57.3087 31.358 57.1659 30.9851 56.8804 30.7209C56.5949 30.4567 56.1837 30.3246 55.6468 30.3246C55.08 30.3246 54.6304 30.4482 54.298 30.6953C53.9699 30.9425 53.7483 31.2344 53.6333 31.571L51.4727 31.2642C51.6432 30.6676 51.9245 30.169 52.3165 29.7685C52.7085 29.3636 53.1879 29.0611 53.7547 28.8608C54.3215 28.6562 54.9479 28.554 55.634 28.554C56.107 28.554 56.5779 28.6094 57.0466 28.7202C57.5154 28.831 57.9436 29.0142 58.3314 29.2699C58.7192 29.5213 59.0303 29.8643 59.2647 30.299C59.5033 30.7337 59.6226 31.277 59.6226 31.929V38.5H57.3982V37.1513H57.3215C57.1808 37.424 56.9827 37.6797 56.727 37.9183C56.4756 38.1527 56.1581 38.3423 55.7746 38.4872C55.3953 38.6278 54.95 38.6982 54.4387 38.6982ZM55.0395 36.9979C55.504 36.9979 55.9067 36.9062 56.2476 36.723C56.5885 36.5355 56.8506 36.2884 57.0338 35.9815C57.2213 35.6747 57.3151 35.3402 57.3151 34.978V33.821C57.2426 33.8807 57.1191 33.9361 56.9443 33.9872C56.7739 34.0384 56.5821 34.0831 56.3691 34.1214C56.156 34.1598 55.9451 34.1939 55.7362 34.2237C55.5274 34.2536 55.3463 34.2791 55.1929 34.3004C54.8477 34.3473 54.5388 34.424 54.2661 34.5305C53.9933 34.6371 53.7781 34.7862 53.6205 34.978C53.4628 35.1655 53.384 35.4084 53.384 35.7067C53.384 36.1328 53.5395 36.4545 53.8506 36.6719C54.1617 36.8892 54.558 36.9979 55.0395 36.9979ZM67.032 28.6818V30.4716H61.3878V28.6818H67.032ZM62.7813 26.3295H65.0952V35.5469C65.0952 35.858 65.1421 36.0966 65.2358 36.2628C65.3339 36.4247 65.4617 36.5355 65.6194 36.5952C65.777 36.6548 65.9518 36.6847 66.1435 36.6847C66.2884 36.6847 66.4205 36.674 66.5398 36.6527C66.6634 36.6314 66.7572 36.6122 66.8211 36.5952L67.211 38.4041C67.0874 38.4467 66.9106 38.4936 66.6804 38.5447C66.4546 38.5959 66.1776 38.6257 65.8495 38.6342C65.2699 38.6513 64.7479 38.5639 64.2834 38.3722C63.8189 38.1761 63.4503 37.8736 63.1776 37.4645C62.9091 37.0554 62.777 36.544 62.7813 35.9304V26.3295ZM71.6721 32.7472V38.5H69.3581V25.4091H71.6209V30.3501H71.736C71.9661 29.7962 72.3219 29.3594 72.8035 29.0398C73.2892 28.7159 73.9071 28.554 74.6571 28.554C75.339 28.554 75.9334 28.6967 76.4405 28.9822C76.9476 29.2678 77.3397 29.6854 77.6167 30.2351C77.8979 30.7848 78.0385 31.456 78.0385 32.2486V38.5H75.7246V32.6065C75.7246 31.946 75.5542 31.4325 75.2133 31.0661C74.8766 30.6953 74.4036 30.5099 73.7942 30.5099C73.3851 30.5099 73.0187 30.5994 72.6948 30.7784C72.3752 30.9531 72.1238 31.2067 71.9405 31.5391C71.7615 31.8714 71.6721 32.2741 71.6721 32.7472ZM89.7604 38.5H85.3243V25.4091H89.8499C91.1496 25.4091 92.2661 25.6712 93.1993 26.1953C94.1368 26.7152 94.857 27.4631 95.3598 28.4389C95.8627 29.4148 96.1141 30.5824 96.1141 31.9418C96.1141 33.3054 95.8605 34.4773 95.3534 35.4574C94.8506 36.4375 94.124 37.1896 93.1738 37.7138C92.2277 38.2379 91.0899 38.5 89.7604 38.5ZM87.6958 36.4482H89.6453C90.5573 36.4482 91.3179 36.282 91.9273 35.9496C92.5367 35.6129 92.9948 35.1122 93.3016 34.4474C93.6084 33.7784 93.7618 32.9432 93.7618 31.9418C93.7618 30.9403 93.6084 30.1094 93.3016 29.4489C92.9948 28.7841 92.5409 28.2876 91.9401 27.9595C91.3435 27.6271 90.602 27.4609 89.7157 27.4609H87.6958V36.4482ZM99.0443 38.6406C98.6565 38.6406 98.3241 38.5043 98.0471 38.2315C97.7701 37.9588 97.6338 37.6264 97.638 37.2344C97.6338 36.8509 97.7701 36.5227 98.0471 36.25C98.3241 35.9773 98.6565 35.8409 99.0443 35.8409C99.4193 35.8409 99.7453 35.9773 100.022 36.25C100.304 36.5227 100.446 36.8509 100.451 37.2344C100.446 37.4943 100.378 37.7308 100.246 37.9439C100.118 38.157 99.9477 38.3274 99.7346 38.4553C99.5258 38.5788 99.2957 38.6406 99.0443 38.6406Z" fill="#fff"/>
<path fill-rule="evenodd" clip-rule="evenodd" d="M1.28655 1.28655C1.56685 1.00626 1.98859 0.922818 2.3545 1.07526L15.398 6.50939C15.7736 6.6659 16.0131 7.03862 15.9994 7.44534C15.9857 7.85207 15.7217 8.20783 15.3363 8.33871L10.1129 10.1129L8.33871 15.3363C8.20783 15.7217 7.85207 15.9857 7.44534 15.9994C7.03862 16.0131 6.6659 15.7736 6.50939 15.398L1.07526 2.3545C0.922818 1.98859 1.00626 1.56685 1.28655 1.28655Z" fill="#2F8A3D" stroke="#54B865" stroke-width="1.5" stroke-linecap="round" stroke-linejoin="round"/>
</g>
<defs>
<clipPath id="clip0_52_19209">
<rect width="111" height="50" fill="white"/>
</clipPath>
</defs>
</svg>