<svg width="1.5rem" height="1.5rem" viewBox="0 0 25 24" fill="none" xmlns="http://www.w3.org/2000/svg">
<circle cx="12.3334" cy="12" r="11.5" stroke="#6FCF97"/>
<path d="M19.3334 12C19.3334 15.235 18.5129 18.14 17.2127 20.2203C15.9081 22.3076 14.1698 23.5 12.3334 23.5C10.4969 23.5 8.75866 22.3076 7.45407 20.2203C6.15389 18.14 5.33337 15.235 5.33337 12C5.33337 8.76501 6.15389 5.86 7.45407 3.77972C8.75866 1.69238 10.4969 0.5 12.3334 0.5C14.1698 0.5 15.9081 1.69238 17.2127 3.77972C18.5129 5.86 19.3334 8.76501 19.3334 12Z" stroke="#6FCF97"/>
<path d="M12.3334 0.5V23.5" stroke="#6FCF97"/>
<path d="M1.33337 8H23.3334" stroke="#6FCF97"/>
<path d="M1.33337 16H23.3334" stroke="#6FCF97"/>
</svg>