<svg width="1.25rem" height="1.25rem" viewBox="0 0 19 19" fill="none" xmlns="http://www.w3.org/2000/svg">
<path d="M1.12811 5.25H6.87189C7.08071 5.25 7.25 5.41929 7.25 5.62811V12.3719C7.25 12.5807 7.08071 12.75 6.87189 12.75H1.12811C0.919285 12.75 0.75 12.5807 0.75 12.3719V5.62811C0.75 5.41929 0.919286 5.25 1.12811 5.25Z" stroke="currentColor" stroke-width="1.5"/>
<path d="M12.1281 11.25H17.8719C18.0807 11.25 18.25 11.4193 18.25 11.6281V17.3719C18.25 17.5807 18.0807 17.75 17.8719 17.75H12.1281C11.9193 17.75 11.75 17.5807 11.75 17.3719V11.6281C11.75 11.4193 11.9193 11.25 12.1281 11.25Z" stroke="currentColor" stroke-width="1.5"/>
<path d="M12.1281 1.25H17.8719C18.0807 1.25 18.25 1.41929 18.25 1.62811V7.37189C18.25 7.58071 18.0807 7.75 17.8719 7.75H12.1281C11.9193 7.75 11.75 7.58071 11.75 7.37189V1.62811C11.75 1.41929 11.9193 1.25 12.1281 1.25Z" stroke="currentColor" stroke-width="1.5"/>
<path d="M8 10.5H8.37189C8.99493 10.5 9.5 11.0051 9.5 11.6281V14.3719C9.5 14.9949 10.0051 15.5 10.6281 15.5H11" fill="currentColor"/>
<path d="M8 10.5H8.37189C8.99493 10.5 9.5 11.0051 9.5 11.6281V14.3719C9.5 14.9949 10.0051 15.5 10.6281 15.5H11" stroke="currentColor" stroke-width="1.5"/>
<path d="M8 7.5H8.37189C8.99493 7.5 9.5 6.99493 9.5 6.37189V3.62811C9.5 3.00507 10.0051 2.5 10.6281 2.5H11" fill="currentColor"/>
<path d="M8 7.5H8.37189C8.99493 7.5 9.5 6.99493 9.5 6.37189V3.62811C9.5 3.00507 10.0051 2.5 10.6281 2.5H11" stroke="currentColor" stroke-width="1.5"/>
</svg>