<svg width="1.5rem" height="1.5rem" viewBox="0 0 24 24" fill="none" xmlns="http://www.w3.org/2000/svg">
<path d="M7.26762 3.18835C6.70041 3.49362 6.16604 3.85206 5.67121 4.257L4.2511 2.83689C4.93834 2.25513 5.6919 1.74929 6.49883 1.33233L7.26762 3.18835Z" fill="#E3CE2C"/>
<path d="M10.9999 2.04932C10.3514 2.1137 9.72116 2.24005 9.11511 2.42234L8.34631 0.566287C9.19381 0.295697 10.0822 0.116725 10.9999 0.0410156V2.04932Z" fill="#E3CE2C"/>
<g opacity="0.9">
<path d="M2.04932 10.9999H0.0410156C0.116722 10.0823 0.295687 9.19386 0.566263 8.34639L2.42231 9.11519C2.24003 9.72121 2.1137 10.3515 2.04932 10.9999Z" fill="#E3CE2C"/>
<path d="M4.257 5.67121C3.85204 6.16606 3.49359 6.70045 3.18832 7.26769L1.33229 6.4989C1.74927 5.69194 2.25511 4.93836 2.83689 4.2511L4.257 5.67121Z" fill="#E3CE2C"/>
</g>
<g opacity="0.8">
<path d="M1.33232 17.5011C1.74928 18.308 2.25512 19.0616 2.83689 19.7488L4.257 18.3287C3.85205 17.8339 3.49361 17.2995 3.18834 16.7323L1.33232 17.5011Z" fill="#E3CE2C"/>
<path d="M2.04932 13C2.1137 13.6485 2.24004 14.2788 2.42233 14.8848L0.566278 15.6536C0.295693 14.8061 0.116724 13.9177 0.0410156 13H2.04932Z" fill="#E3CE2C"/>
</g>
<g opacity="0.7">
<path d="M9.11501 21.5776C9.72105 21.7599 10.3513 21.8862 10.9998 21.9506V23.9589C10.0821 23.8832 9.1937 23.7042 8.34621 23.4336L9.11501 21.5776Z" fill="#E3CE2C"/>
<path d="M5.67108 19.7429C6.16592 20.1479 6.70029 20.5063 7.26752 20.8116L6.49873 22.6676C5.69179 22.2506 4.93822 21.7448 4.25098 21.163L5.67108 19.7429Z" fill="#E3CE2C"/>
</g>
<g opacity="0.6">
<path d="M16.7322 20.8116C17.2995 20.5063 17.8339 20.1479 18.3287 19.7429L19.7488 21.163C19.0616 21.7448 18.308 22.2507 17.501 22.6676L16.7322 20.8116Z" fill="#E3CE2C"/>
<path d="M13 21.9506C13.6485 21.8862 14.2787 21.7599 14.8847 21.5776L15.6536 23.4337C14.8061 23.7042 13.9177 23.8832 13 23.9589V21.9506Z" fill="#E3CE2C"/>
</g>
<g opacity="0.5">
<path d="M21.5778 14.8848C21.7601 14.2788 21.8865 13.6485 21.9508 13H23.9591C23.8834 13.9177 23.7045 14.8061 23.4339 15.6536L21.5778 14.8848Z" fill="#E3CE2C"/>
<path d="M19.7432 18.3287C20.1481 17.8339 20.5065 17.2995 20.8118 16.7323L22.6678 17.5011C22.2509 18.308 21.745 19.0616 21.1633 19.7488L19.7432 18.3287Z" fill="#E3CE2C"/>
</g>
<g opacity="0.4">
<path d="M20.8116 7.26767C20.5063 6.70043 20.1479 6.16606 19.7429 5.67121L21.1631 4.2511C21.7448 4.93835 22.2507 5.69193 22.6676 6.49888L20.8116 7.26767Z" fill="#E3CE2C"/>
<path d="M21.9506 10.9999C21.8862 10.3515 21.7599 9.7212 21.5776 9.11516L23.4337 8.34636C23.7043 9.19385 23.8832 10.0823 23.9589 10.9999H21.9506Z" fill="#E3CE2C"/>
</g>
<g opacity="0.3">
<path d="M14.8848 2.42232C14.2787 2.24004 13.6485 2.1137 13 2.04932V0.0410156C13.9177 0.116723 14.8061 0.295689 15.6536 0.566268L14.8848 2.42232Z" fill="#E3CE2C"/>
<path d="M18.3287 4.25699C17.8339 3.85205 17.2995 3.4936 16.7323 3.18832L17.501 1.3323C18.308 1.74927 19.0616 2.25512 19.7488 2.83689L18.3287 4.25699Z" fill="#E3CE2C"/>
</g>
<circle cx="12" cy="12" r="5" stroke="#3D3918" stroke-width="2"/>
<circle cx="12" cy="12" r="7" stroke="#E3CE2C" stroke-width="2"/>
<path d="M7.0498 16.9497L16.9493 7.05021" stroke="#E3CE2C" stroke-width="2"/>
</svg>