<svg width="2rem" height="2rem" viewBox="0 0 32 32" fill="none" xmlns="http://www.w3.org/2000/svg">
<path fill-rule="evenodd" clip-rule="evenodd" d="M26.3623 10.7852C26.3713 11.0183 26.3743 11.2514 26.3743 11.4846C26.3743 18.5542 21.4012 26.7157 12.3071 26.7157C9.51354 26.7157 6.91594 25.8253 4.72733 24.3096C5.1142 24.352 5.50711 24.3839 5.90605 24.3839C8.22228 24.3839 10.3556 23.5252 12.0478 22.0837C9.88435 22.0519 8.05749 20.4939 7.42744 18.374C7.7299 18.4376 8.04139 18.4695 8.35994 18.4695C8.80912 18.4695 9.24523 18.406 9.66326 18.2788C7.39927 17.7912 5.69402 15.6291 5.69402 13.0323C5.69402 13.0005 5.69402 12.9898 5.69402 12.9686C6.36126 13.3608 7.12495 13.6045 7.93588 13.6363C6.60744 12.6717 5.73419 11.0289 5.73419 9.17408C5.73419 8.19897 5.97737 7.2768 6.40545 6.48187C8.84328 9.7252 12.488 11.8556 16.5969 12.0782C16.5125 11.6861 16.4693 11.2728 16.4693 10.8594C16.4693 7.90228 18.683 5.50684 21.4143 5.50684C22.8362 5.50684 24.1204 6.15347 25.0218 7.19219C26.1502 6.95901 27.2074 6.51387 28.164 5.89913C27.7932 7.14982 27.0104 8.19891 25.9874 8.85606C26.9883 8.72887 27.943 8.44291 28.8282 8.01895C28.164 9.08946 27.328 10.0326 26.3623 10.7852Z" fill="#878787"/>
</svg>