<svg width="100%" height="1.25rem" viewBox="0 0 211 20" fill="none" xmlns="http://www.w3.org/2000/svg">
<g clip-path="url(#clip0_52_20262)">
<circle cx="5" cy="9.5" r="4.25" stroke="#A5A5A5" stroke-width="1.5"/>
<line x1="9.06066" y1="12.5" x2="11" y2="14.4393" stroke="#A5A5A5" stroke-width="1.5" stroke-linecap="round"/>
</g>
<path d="M17.9883 14V6.24951H18.9551V14H17.9883ZM20.8135 14V8.20996H21.748V9.08008H21.834C22.124 8.46777 22.6665 8.10791 23.5205 8.10791C24.8203 8.10791 25.5454 8.87598 25.5454 10.251V14H24.6108V10.4766C24.6108 9.43457 24.1812 8.93506 23.2573 8.93506C22.3335 8.93506 21.748 9.55811 21.748 10.5732V14H20.8135ZM29.2246 14.1021C27.9355 14.1021 27.0493 13.479 26.9419 12.5229H27.8979C28.0537 13.0063 28.5156 13.3232 29.2568 13.3232C30.0356 13.3232 30.5889 12.9526 30.5889 12.4263V12.4155C30.5889 12.0234 30.2935 11.7495 29.5791 11.5776L28.6821 11.3628C27.5972 11.105 27.1084 10.6323 27.1084 9.7998V9.79443C27.1084 8.83301 28.0322 8.10791 29.2622 8.10791C30.4761 8.10791 31.3193 8.71484 31.4482 9.66016H30.5298C30.4062 9.20361 29.9551 8.88672 29.2568 8.88672C28.5693 8.88672 28.0645 9.24121 28.0645 9.75146V9.76221C28.0645 10.1543 28.3545 10.4014 29.0366 10.5679L29.9282 10.7827C31.0186 11.0459 31.5449 11.5186 31.5449 12.3457V12.3564C31.5449 13.3877 30.5405 14.1021 29.2246 14.1021ZM35.3584 14.1021C33.7041 14.1021 32.7051 12.9419 32.7051 11.1265V11.1211C32.7051 9.33252 33.7256 8.10791 35.2993 8.10791C36.873 8.10791 37.8291 9.27881 37.8291 11.0083V11.3735H33.6611C33.688 12.5713 34.3486 13.2695 35.3799 13.2695C36.1641 13.2695 36.6475 12.8989 36.8032 12.5498L36.8247 12.5015H37.7593L37.7485 12.5444C37.5498 13.3286 36.7227 14.1021 35.3584 14.1021ZM35.2939 8.94043C34.4346 8.94043 33.7793 9.52588 33.6772 10.627H36.8784C36.7817 9.48291 36.1479 8.94043 35.2939 8.94043ZM39.2793 14V8.20996H40.2139V9.06934H40.2998C40.52 8.4624 41.0625 8.10791 41.8467 8.10791C42.0239 8.10791 42.2227 8.12939 42.314 8.14551V9.05322C42.1206 9.021 41.9434 8.99951 41.7393 8.99951C40.8477 8.99951 40.2139 9.56348 40.2139 10.4121V14H39.2793ZM45.8481 14.043C44.6558 14.043 44.1562 13.6025 44.1562 12.4961V8.9834H43.2432V8.20996H44.1562V6.71143H45.123V8.20996H46.3906V8.9834H45.123V12.2598C45.123 12.9419 45.3594 13.2158 45.9609 13.2158C46.1274 13.2158 46.2188 13.2104 46.3906 13.1943V13.9893C46.208 14.0215 46.0308 14.043 45.8481 14.043ZM50.999 14V6.24951H51.9658V14H50.999ZM55.8813 14.043C54.689 14.043 54.1895 13.6025 54.1895 12.4961V8.9834H53.2764V8.20996H54.1895V6.71143H55.1562V8.20996H56.4238V8.9834H55.1562V12.2598C55.1562 12.9419 55.3926 13.2158 55.9941 13.2158C56.1606 13.2158 56.252 13.2104 56.4238 13.1943V13.9893C56.2412 14.0215 56.064 14.043 55.8813 14.043ZM60.0977 14.1021C58.4434 14.1021 57.4443 12.9419 57.4443 11.1265V11.1211C57.4443 9.33252 58.4648 8.10791 60.0386 8.10791C61.6123 8.10791 62.5684 9.27881 62.5684 11.0083V11.3735H58.4004C58.4272 12.5713 59.0879 13.2695 60.1191 13.2695C60.9033 13.2695 61.3867 12.8989 61.5425 12.5498L61.564 12.5015H62.4985L62.4878 12.5444C62.2891 13.3286 61.4619 14.1021 60.0977 14.1021ZM60.0332 8.94043C59.1738 8.94043 58.5186 9.52588 58.4165 10.627H61.6177C61.521 9.48291 60.8872 8.94043 60.0332 8.94043ZM64.0186 14V8.20996H64.9531V9.09082H65.0391C65.2969 8.46777 65.8447 8.10791 66.6021 8.10791C67.3862 8.10791 67.9341 8.52148 68.2026 9.12305H68.2886C68.6001 8.51074 69.2607 8.10791 70.061 8.10791C71.2427 8.10791 71.9033 8.78467 71.9033 9.99854V14H70.9688V10.2134C70.9688 9.35938 70.5767 8.93506 69.7603 8.93506C68.9546 8.93506 68.4229 9.54199 68.4229 10.2778V14H67.4883V10.0684C67.4883 9.38086 67.0156 8.93506 66.2852 8.93506C65.5278 8.93506 64.9531 9.5957 64.9531 10.4121V14H64.0186Z" fill="#A5A5A5"/>
<line opacity="0.8" x1="16.5" y1="2" x2="15.5" y2="17" stroke="#F1F1F1"/>
<defs>
<clipPath id="clip0_52_20262">
<rect width="11" height="11" fill="white" transform="translate(0 4.5)"/>
</clipPath>
</defs>
</svg>