<svg width="44" height="44" viewBox="0 0 44 44" fill="none" xmlns="http://www.w3.org/2000/svg">
<rect width="44" height="44" rx="12" fill="#993456" fill-opacity="0.4"/>
<path d="M10.8 14C10.8 15.7673 12.2327 17.2 14 17.2C15.7673 17.2 17.2 15.7673 17.2 14C17.2 12.2327 15.7673 10.8 14 10.8C12.2327 10.8 10.8 12.2327 10.8 14Z" fill="#F52F71" fill-opacity="0.3"/>
<path d="M10.8 30C10.8 31.7673 12.2327 33.2 14 33.2C15.7673 33.2 17.2 31.7673 17.2 30C17.2 28.2327 15.7673 26.8 14 26.8C12.2327 26.8 10.8 28.2327 10.8 30Z" fill="#F52F71" fill-opacity="0.3"/>
<path d="M26.8 14C26.8 15.7673 28.2327 17.2 30 17.2C31.7673 17.2 33.2 15.7673 33.2 14C33.2 12.2327 31.7673 10.8 30 10.8C28.2327 10.8 26.8 12.2327 26.8 14Z" fill="#F52F71" fill-opacity="0.3"/>
<path d="M14 17.2C12.2327 17.2 10.8 15.7673 10.8 14C10.8 12.2327 12.2327 10.8 14 10.8C15.7673 10.8 17.2 12.2327 17.2 14C17.2 15.7673 15.7673 17.2 14 17.2ZM14 17.2V26.8M14 26.8C15.7673 26.8 17.2 28.2327 17.2 30C17.2 31.7673 15.7673 33.2 14 33.2C12.2327 33.2 10.8 31.7673 10.8 30C10.8 28.2327 12.2327 26.8 14 26.8ZM30 17.2C28.2327 17.2 26.8 15.7673 26.8 14C26.8 12.2327 28.2327 10.8 30 10.8C31.7673 10.8 33.2 12.2327 33.2 14C33.2 15.7673 31.7673 17.2 30 17.2ZM30 17.2V18.8C30 21.451 27.851 23.6 25.2 23.6H14" stroke="#FB4B87" stroke-width="1.5"/>
</svg>
