<svg width="45" height="176" viewBox="0 0 45 176" fill="none" xmlns="http://www.w3.org/2000/svg">
<g clip-path="url(#clip0_392_22996)">
<mask id="mask0_392_22996" style="mask-type:alpha" maskUnits="userSpaceOnUse" x="0" y="0" width="44" height="44">
<circle cx="22" cy="22" r="22" fill="#C4C4C4"/>
</mask>
<g mask="url(#mask0_392_22996)">
<g filter="url(#filter0_b_392_22996)">
<circle cx="22.0008" cy="22" r="26.1069" fill="#CFBA1D"/>
<circle cx="22.0008" cy="22" r="27.1069" stroke="white" stroke-width="2"/>
</g>
<path d="M17.8 23.9501L17.35 23.3501L16.15 24.2501L16.6 24.8501L17.8 23.9501ZM27.4001 24.8501L27.8501 24.2501L26.6501 23.3501L26.2001 23.9501L27.4001 24.8501ZM22 32.4501C16.2287 32.4501 11.55 27.7714 11.55 22H10.05C10.05 28.5999 15.4002 33.9501 22 33.9501V32.4501ZM32.4501 22C32.4501 27.7714 27.7714 32.4501 22 32.4501V33.9501C28.5999 33.9501 33.9501 28.5999 33.9501 22H32.4501ZM22 11.55C27.7714 11.55 32.4501 16.2287 32.4501 22H33.9501C33.9501 15.4002 28.5999 10.05 22 10.05V11.55ZM22 10.05C15.4002 10.05 10.05 15.4002 10.05 22H11.55C11.55 16.2287 16.2287 11.55 22 11.55V10.05ZM16.4 19.55H18V18.05H16.4V19.55ZM26.0001 19.55H27.6001V18.05H26.0001V19.55ZM26.2001 23.9501C24.1001 26.7501 19.9 26.7501 17.8 23.9501L16.6 24.8501C19.3 28.4501 24.7001 28.4501 27.4001 24.8501L26.2001 23.9501Z" fill="#171717"/>
</g>
</g>
<path d="M44.5303 170.53C44.8232 170.237 44.8232 169.763 44.5303 169.47L39.7574 164.697C39.4645 164.404 38.9896 164.404 38.6967 164.697C38.4038 164.99 38.4038 165.464 38.6967 165.757L42.9393 170L38.6967 174.243C38.4038 174.536 38.4038 175.01 38.6967 175.303C38.9896 175.596 39.4645 175.596 39.7574 175.303L44.5303 170.53ZM21.25 50L21.25 158L22.75 158L22.75 50L21.25 50ZM34 170.75L44 170.75L44 169.25L34 169.25L34 170.75ZM21.25 158C21.25 165.042 26.9584 170.75 34 170.75L34 169.25C27.7868 169.25 22.75 164.213 22.75 158L21.25 158Z" fill="#D2D27E"/>
<defs>
<filter id="filter0_b_392_22996" x="-12.1061" y="-12.1069" width="68.2138" height="68.2137" filterUnits="userSpaceOnUse" color-interpolation-filters="sRGB">
<feFlood flood-opacity="0" result="BackgroundImageFix"/>
<feGaussianBlur in="BackgroundImageFix" stdDeviation="3"/>
<feComposite in2="SourceAlpha" operator="in" result="effect1_backgroundBlur_392_22996"/>
<feBlend mode="normal" in="SourceGraphic" in2="effect1_backgroundBlur_392_22996" result="shape"/>
</filter>
<clipPath id="clip0_392_22996">
<rect width="44" height="44" fill="white"/>
</clipPath>
</defs>
</svg>
