<svg width="1.25rem" height="1.25rem" viewBox="0 0 24 24" fill="none" xmlns="http://www.w3.org/2000/svg">
<path d="M1.5 23.5V5.5H7.5" stroke="#183D28"/>
<path d="M18.5 8.5V22C18.5 22.8284 17.8284 23.5 17 23.5H2C1.17157 23.5 0.5 22.8284 0.5 22V6C0.5 5.17157 1.17157 4.5 2 4.5H6.03875C6.49443 4.5 6.9254 4.70713 7.21005 5.06296L8.45944 6.6247C8.64922 6.86191 8.93653 7 9.24031 7H17C17.8284 7 18.5 7.67157 18.5 8.5Z" stroke="#6FCF97"/>
<path d="M5.60409 10.4847C5.83756 9.60917 6.63046 9 7.53656 9H20.3968C21.7108 9 22.6678 10.2456 22.3292 11.5153L19.3959 22.5153C19.1624 23.3908 18.3695 24 17.4634 24H2L5.60409 10.4847Z" fill="#1C1C1C"/>
<path d="M11 17.5H20L19 22H13C11.8954 22 11 21.1046 11 20V17.5Z" fill="#183D28"/>
<path d="M3.62012 23.75L7.155 10.5H22.0001" stroke="#183D28"/>
<path d="M17.4634 23.5H2.65081L6.0872 10.6135C6.26231 9.95688 6.85698 9.5 7.53656 9.5H20.3968C21.3823 9.5 22.1001 10.4342 21.8461 11.3865L18.9128 22.3865C18.7377 23.0431 18.143 23.5 17.4634 23.5Z" stroke="#6FCF97"/>
<rect x="11.5" y="12.5" width="12" height="8" rx="1.5" fill="#6FCF97"/>
<rect x="15.5" y="16" width="4" height="3" stroke="#1C1C1C"/>
<path d="M18.5 15V16H16.5V15C16.5 14.4477 16.9477 14 17.5 14C18.0523 14 18.5 14.4477 18.5 15Z" stroke="#1C1C1C"/>
<rect x="11.5" y="12.5" width="12" height="8" rx="1.5" stroke="#6FCF97"/>
</svg>