<svg width="1.25rem" height="1.25rem" viewBox="0 0 20 21" fill="none" xmlns="http://www.w3.org/2000/svg">
<path d="M4.248 8.5H1.752C1.33668 8.5 1 8.83668 1 9.252V11.748C1 12.1633 1.33668 12.5 1.752 12.5H4.248C4.66332 12.5 5 12.1633 5 11.748V9.252C5 8.83668 4.66332 8.5 4.248 8.5Z" stroke="currentColor" stroke-width="1.5"/>
<path d="M18.06 1.5H9.94C9.42085 1.5 9 2.00502 9 2.628V18.372C9 18.995 9.42085 19.5 9.94 19.5H18.06C18.5791 19.5 19 18.995 19 18.372V2.628C19 2.00502 18.5791 1.5 18.06 1.5Z" stroke="currentColor" stroke-width="1.5"/>
<path d="M3 8V5.628C3 5.005 3.606 4.5 4.3536 4.5H9M3 13V15.372C3 15.995 3.606 16.5 4.3536 16.5H9" stroke="currentColor" stroke-width="1.5"/>
<path d="M14.5 4.5H13.5C12.9477 4.5 12.5 4.94772 12.5 5.5V6.5C12.5 7.05228 12.9477 7.5 13.5 7.5H14.5C15.0523 7.5 15.5 7.05228 15.5 6.5V5.5C15.5 4.94772 15.0523 4.5 14.5 4.5Z" fill="currentColor"/>
<path d="M14.5 9H13.5C12.9477 9 12.5 9.44772 12.5 10V11C12.5 11.5523 12.9477 12 13.5 12H14.5C15.0523 12 15.5 11.5523 15.5 11V10C15.5 9.44772 15.0523 9 14.5 9Z" fill="#A5A5A5"/>
<path d="M14.5 13.5H13.5C12.9477 13.5 12.5 13.9477 12.5 14.5V15.5C12.5 16.0523 12.9477 16.5 13.5 16.5H14.5C15.0523 16.5 15.5 16.0523 15.5 15.5V14.5C15.5 13.9477 15.0523 13.5 14.5 13.5Z" fill="currentColor"/>
</svg>