<svg width="1.5rem" height="1.5rem" viewBox="0 0 24 24" fill="none" xmlns="http://www.w3.org/2000/svg">
<path fill-rule="evenodd" clip-rule="evenodd" d="M0.381012 15C0.912467 17.0581 1.98609 18.9567 3.51471 20.4853C5.76515 22.7357 8.8174 24 12 24C15.1826 24 18.2348 22.7357 20.4853 20.4853C22.0139 18.9567 23.0875 17.0581 23.619 15H19.4162C19.0176 15.9853 18.423 16.8908 17.6569 17.6569C16.1566 19.1571 14.1217 20 12 20C9.87826 20 7.84343 19.1571 6.34314 17.6569C5.57704 16.8907 4.98236 15.9853 4.5838 15H0.381012Z" fill="#3D3918"/>
<mask id="path-2-inside-1_52_20997" fill="white">
<path d="M1.04907e-06 12C7.70842e-07 15.1826 1.26428 18.2348 3.51472 20.4853C5.76515 22.7357 8.8174 24 12 24C15.1826 24 18.2348 22.7357 20.4853 20.4853C22.7357 18.2348 24 15.1826 24 12L12 12L1.04907e-06 12Z"/>
</mask>
<path d="M1.04907e-06 12C7.70842e-07 15.1826 1.26428 18.2348 3.51472 20.4853C5.76515 22.7357 8.8174 24 12 24C15.1826 24 18.2348 22.7357 20.4853 20.4853C22.7357 18.2348 24 15.1826 24 12L12 12L1.04907e-06 12Z" stroke="#E3CE2C" stroke-width="4" mask="url(#path-2-inside-1_52_20997)"/>
<rect y="11" width="24" height="4" fill="#1C1C1C"/>
<circle cx="12" cy="12" r="2" fill="#E3CE2C"/>
<path d="M21.1626 4.25134L18.3193 7.09462C18.7563 7.65751 19.1169 8.27744 19.3908 8.93852C19.7928 9.90912 19.9997 10.9494 19.9997 12H23.9997C23.9997 10.4241 23.6893 8.8637 23.0863 7.40779C22.6112 6.26075 21.9617 5.19629 21.1626 4.25134Z" fill="#E3CE2C"/>
<path opacity="0.75" d="M13 4.06276C13.707 4.15183 14.4004 4.33514 15.0615 4.60897C15.7226 4.88281 16.3425 5.2435 16.9054 5.68043L19.7487 2.83715C18.8037 2.03804 17.7393 1.38858 16.5922 0.913455C15.4452 0.438334 14.2332 0.144876 13 0.041748V4.06276Z" fill="#E3CE2C"/>
<path opacity="0.5" d="M10.9996 0.041748C9.76634 0.144876 8.55441 0.438334 7.40737 0.913455C6.26035 1.38857 5.19591 2.038 4.25098 2.83708L7.09426 5.68036C7.65713 5.24347 8.27705 4.88279 8.9381 4.60897C9.59919 4.33514 10.2926 4.15183 10.9996 4.06276V0.041748Z" fill="#E3CE2C"/>
<path opacity="0.25" d="M5.68046 7.09462L2.83718 4.25134C2.03805 5.19631 1.38858 6.2608 0.913445 7.40787C0.310389 8.86378 0 10.4242 0 12.0001L4 12.0001C4 10.9495 4.20693 9.90921 4.60896 8.9386C4.8828 8.27749 5.24352 7.65753 5.68046 7.09462Z" fill="#E3CE2C"/>
<path d="M16.7071 8.70711C17.0976 8.31658 17.0976 7.68342 16.7071 7.29289C16.3166 6.90237 15.6834 6.90237 15.2929 7.29289L16.7071 8.70711ZM12.7071 12.7071L16.7071 8.70711L15.2929 7.29289L11.2929 11.2929L12.7071 12.7071Z" fill="#E3CE2C"/>
</svg>