<svg width="1.25rem" height="1.25rem" viewBox="0 0 18 19" fill="none" xmlns="http://www.w3.org/2000/svg">
<mask id="mask0_52_20283" style="mask-type:luminance" maskUnits="userSpaceOnUse" x="0" y="0" width="18" height="19">
<path d="M18 0.5H0V18.5H18V0.5Z" fill="white"/>
</mask>
<g mask="url(#mask0_52_20283)">
<path d="M11.154 1.3999H6.846C6.37876 1.3999 6 1.76352 6 2.21206V4.18774C6 4.63628 6.37876 4.9999 6.846 4.9999H11.154C11.6212 4.9999 12 4.63628 12 4.18774V2.21206C12 1.76352 11.6212 1.3999 11.154 1.3999Z" stroke="currentColor" stroke-width="1.5"/>
<path d="M6 10.3999H3.45871C2.98531 10.3999 2.60156 10.8028 2.60156 11.2999V13.9999" stroke="currentColor" stroke-width="1.5"/>
<path d="M12 10.3999H14.3739C14.8473 10.3999 15.231 10.8028 15.231 11.2999V13.9999" stroke="currentColor" stroke-width="1.5"/>
<path d="M6.43357 11.1487C5.92466 10.7924 5.92465 10.0072 6.43357 9.65092L8.52488 8.18704C8.81283 7.9855 9.18792 7.9855 9.47583 8.18704L11.5671 9.65092C12.0761 10.0072 12.0761 10.7924 11.5671 11.1487L9.47583 12.6125C9.18792 12.8141 8.81283 12.8141 8.52488 12.6125L6.43357 11.1487Z" stroke="currentColor" stroke-width="1.5"/>
<path d="M9.01508 5V7.7" stroke="currentColor" stroke-width="1.5"/>
<path d="M6.01112 14H1.70312C1.23588 14 0.857117 14.3636 0.857117 14.8122V16.7878C0.857117 17.2364 1.23588 17.6 1.70312 17.6H6.01112C6.47835 17.6 6.85712 17.2364 6.85712 16.7878V14.8122C6.85712 14.3636 6.47835 14 6.01112 14Z" stroke="currentColor" stroke-width="1.5"/>
<path d="M16.2968 14H11.9888C11.5216 14 11.1428 14.3636 11.1428 14.8122V16.7878C11.1428 17.2364 11.5216 17.6 11.9888 17.6H16.2968C16.7641 17.6 17.1428 17.2364 17.1428 16.7878V14.8122C17.1428 14.3636 16.7641 14 16.2968 14Z" stroke="currentColor" stroke-width="1.5"/>
</g>
</svg>