<svg width="44" height="44" viewBox="0 0 44 44" fill="none" xmlns="http://www.w3.org/2000/svg">
<rect width="44" height="44" rx="12" fill="#998D34" fill-opacity="0.4"/>
<path d="M14 18.8C14 14.3818 17.5817 10.8 22 10.8C26.4183 10.8 30 14.3818 30 18.8V25.2001C30 29.6183 26.4183 33.2001 22 33.2001C17.5817 33.2001 14 29.6183 14 25.2001V18.8Z" fill="#F5DE2F" fill-opacity="0.3"/>
<path d="M22 16.4V21.2M22 33.2001C17.5817 33.2001 14 29.6183 14 25.2001V18.8C14 14.3818 17.5817 10.8 22 10.8C26.4183 10.8 30 14.3818 30 18.8V25.2001C30 29.6183 26.4183 33.2001 22 33.2001Z" stroke="#D2D27E" stroke-width="1.5"/>
</svg>
