<svg width="1.25rem" height="1.25rem" viewBox="0 0 20 20" fill="none" xmlns="http://www.w3.org/2000/svg">
<rect width="20" height="20" rx="4" fill="#D63C4C" fill-opacity="0.4"/>
<path d="M6.00039 5.1999C6.00039 5.64173 5.64222 5.9999 5.20039 5.9999C4.75856 5.9999 4.40039 5.64173 4.40039 5.1999C4.40039 4.75807 4.75856 4.3999 5.20039 4.3999C5.64222 4.3999 6.00039 4.75807 6.00039 5.1999ZM6.00039 5.1999H7.60039C8.92587 5.1999 10.0004 6.27442 10.0004 7.5999V12.3999C10.0004 13.7254 11.0749 14.7999 12.4004 14.7999H14.0004M14.0004 14.7999C14.0004 15.2417 14.3586 15.5999 14.8004 15.5999C15.2422 15.5999 15.6004 15.2417 15.6004 14.7999C15.6004 14.3581 15.2422 13.9999 14.8004 13.9999C14.3586 13.9999 14.0004 14.3581 14.0004 14.7999Z" stroke="#EC2C40"/>
</svg>