<svg width="1.5rem" height="1.5rem" viewBox="0 0 25 24" fill="none" xmlns="http://www.w3.org/2000/svg"><path d="M11.6667 16H17.6667V20.5H13.6667C12.5621 20.5 11.6667 19.6046 11.6667 18.5V16Z" fill="#183D28"/><path d="M11.6667 3V3C11.9428 3 12.1667 3.22386 12.1667 3.5V4.5C12.1667 5.32843 12.8382 6 13.6667 6H17.6667V7.5H13.6667C12.5621 7.5 11.6667 6.60457 11.6667 5.5V3Z" fill="#183D28"/><path d="M12.1667 1.5H2.16666V22.5H17.6667" stroke="#183D28"/><path d="M13.1667 1.75V6" stroke="#183D28"/><path d="M5.16666 14V12H9.16666" stroke="#183D28"/><path d="M11.6667 0.5V5C11.6667 5.82843 12.3382 6.5 13.1667 6.5H17.6667V22C17.6667 22.8284 16.9951 23.5 16.1667 23.5H2.66666C1.83823 23.5 1.16666 22.8284 1.16666 22V2C1.16666 1.17157 1.83823 0.5 2.66666 0.5H11.6667ZM12.6667 5V1.20711L16.9595 5.5H13.1667C12.8905 5.5 12.6667 5.27614 12.6667 5Z" stroke="#6FCF97"/><rect x="4.16666" y="11" width="5" height="3" stroke="#6FCF97"/><path d="M3.66666 16.5H9.66666" stroke="#6FCF97"/><path d="M3.66666 20H9.66666" stroke="#183D28"/><path d="M3.66666 19H9.66666" stroke="#6FCF97"/><path d="M3.66666 6H9.66666" stroke="#6FCF97"/><path d="M3.66666 3.5H9.66666" stroke="#6FCF97"/><path d="M3.66666 8.5H15.1667" stroke="#6FCF97"/><rect x="12.1667" y="11" width="12" height="8" rx="1.5" fill="#6FCF97"/><circle cx="17.6667" cy="14.5" r="2" stroke="#1C1C1C"/><path d="M19.1667 16L21.1667 18" stroke="#1C1C1C"/><rect x="12.1667" y="11" width="12" height="8" rx="1.5" stroke="#6FCF97"/></svg>