<svg class="icon-vec" width="7.375rem" height="3.125rem" viewBox="0 0 118 50" fill="none" xmlns="http://www.w3.org/2000/svg">
<g clip-path="url(#clip0_52_19212)">
<rect y="15" width="101" height="35" rx="4" fill="#D1730A"/>
<path d="M10.2912 38.5V25.4091H12.6626V36.5121H18.4283V38.5H10.2912ZM23.3895 38.6982C22.7674 38.6982 22.207 38.5874 21.7084 38.3658C21.2141 38.1399 20.822 37.8075 20.5323 37.3686C20.2468 36.9297 20.104 36.3885 20.104 35.745C20.104 35.1911 20.2063 34.733 20.4108 34.3707C20.6154 34.0085 20.8945 33.7188 21.2482 33.5014C21.6019 33.2841 22.0003 33.12 22.4435 33.0092C22.8909 32.8942 23.3533 32.8111 23.8306 32.7599C24.4059 32.7003 24.8725 32.647 25.2304 32.6001C25.5884 32.549 25.8483 32.4723 26.0103 32.37C26.1764 32.2635 26.2595 32.0994 26.2595 31.8778V31.8395C26.2595 31.358 26.1168 30.9851 25.8313 30.7209C25.5458 30.4567 25.1345 30.3246 24.5976 30.3246C24.0309 30.3246 23.5813 30.4482 23.2489 30.6953C22.9208 30.9425 22.6992 31.2344 22.5841 31.571L20.4236 31.2642C20.5941 30.6676 20.8753 30.169 21.2674 29.7685C21.6594 29.3636 22.1388 29.0611 22.7056 28.8608C23.2723 28.6562 23.8988 28.554 24.5848 28.554C25.0578 28.554 25.5287 28.6094 25.9975 28.7202C26.4662 28.831 26.8945 29.0142 27.2823 29.2699C27.6701 29.5213 27.9811 29.8643 28.2155 30.299C28.4541 30.7337 28.5735 31.277 28.5735 31.929V38.5H26.349V37.1513H26.2723C26.1317 37.424 25.9336 37.6797 25.6779 37.9183C25.4264 38.1527 25.109 38.3423 24.7255 38.4872C24.3462 38.6278 23.9009 38.6982 23.3895 38.6982ZM23.9904 36.9979C24.4549 36.9979 24.8576 36.9062 25.1985 36.723C25.5394 36.5355 25.8014 36.2884 25.9847 35.9815C26.1722 35.6747 26.2659 35.3402 26.2659 34.978V33.821C26.1935 33.8807 26.0699 33.9361 25.8952 33.9872C25.7247 34.0384 25.533 34.0831 25.3199 34.1214C25.1068 34.1598 24.8959 34.1939 24.6871 34.2237C24.4783 34.2536 24.2972 34.2791 24.1438 34.3004C23.7986 34.3473 23.4897 34.424 23.2169 34.5305C22.9442 34.6371 22.729 34.7862 22.5713 34.978C22.4137 35.1655 22.3348 35.4084 22.3348 35.7067C22.3348 36.1328 22.4904 36.4545 22.8014 36.6719C23.1125 36.8892 23.5088 36.9979 23.9904 36.9979ZM37.338 34.3707V28.6818H39.6519V38.5H37.4083V36.755H37.306C37.0844 37.3047 36.7201 37.7543 36.213 38.1037C35.7101 38.4531 35.0901 38.6278 34.3529 38.6278C33.7094 38.6278 33.1405 38.4851 32.6462 38.1996C32.1562 37.9098 31.7726 37.4901 31.4957 36.9403C31.2187 36.3864 31.0802 35.7173 31.0802 34.9332V28.6818H33.3941V34.5753C33.3941 35.1974 33.5645 35.6918 33.9055 36.0582C34.2464 36.4247 34.6938 36.608 35.2478 36.608C35.5887 36.608 35.9189 36.5249 36.2386 36.3587C36.5582 36.1925 36.8202 35.9453 37.0248 35.6172C37.2336 35.2848 37.338 34.8693 37.338 34.3707ZM42.2113 38.5V28.6818H44.455V30.3182H44.5572C44.7362 29.7514 45.043 29.3146 45.4777 29.0078C45.9166 28.6967 46.4173 28.5412 46.9798 28.5412C47.1077 28.5412 47.2504 28.5476 47.4081 28.5604C47.57 28.5689 47.7042 28.5838 47.8108 28.6051V30.7337C47.7128 30.6996 47.5572 30.6697 47.3442 30.6442C47.1353 30.6143 46.9329 30.5994 46.7369 30.5994C46.315 30.5994 45.9358 30.6911 45.5991 30.8743C45.2667 31.0533 45.0047 31.3026 44.8129 31.6222C44.6211 31.9418 44.5253 32.3104 44.5253 32.728V38.5H42.2113ZM53.4704 38.6918C52.486 38.6918 51.6358 38.4872 50.9199 38.0781C50.2083 37.6648 49.6607 37.081 49.2772 36.3267C48.8937 35.5682 48.7019 34.6754 48.7019 33.6484C48.7019 32.6385 48.8937 31.7521 49.2772 30.9893C49.665 30.2223 50.2062 29.6257 50.9008 29.1996C51.5954 28.7692 52.4114 28.554 53.3489 28.554C53.954 28.554 54.525 28.652 55.062 28.848C55.6032 29.0398 56.0804 29.3381 56.4938 29.7429C56.9114 30.1477 57.2395 30.6634 57.4782 31.2898C57.7168 31.9119 57.8361 32.6534 57.8361 33.5142V34.2237H49.7885V32.6641H55.6181C55.6138 32.2209 55.5179 31.8267 55.3304 31.4815C55.1429 31.1321 54.8809 30.8572 54.5442 30.657C54.2118 30.4567 53.824 30.3565 53.3809 30.3565C52.9079 30.3565 52.4924 30.4716 52.1344 30.7017C51.7765 30.9276 51.4973 31.2259 51.2971 31.5966C51.101 31.9631 51.0009 32.3658 50.9966 32.8047V34.1662C50.9966 34.7372 51.101 35.2273 51.3098 35.6364C51.5187 36.0412 51.8106 36.3523 52.1856 36.5696C52.5606 36.7827 52.9995 36.8892 53.5023 36.8892C53.839 36.8892 54.1437 36.8423 54.4164 36.7486C54.6891 36.6506 54.9256 36.5078 55.1259 36.3203C55.3262 36.1328 55.4775 35.9006 55.5797 35.6236L57.7402 35.8665C57.6039 36.4375 57.3439 36.9361 56.9604 37.3622C56.5812 37.7841 56.0954 38.1122 55.503 38.3466C54.9107 38.5767 54.2331 38.6918 53.4704 38.6918ZM62.2876 32.7472V38.5H59.9737V28.6818H62.1853V30.3501H62.3004C62.5262 29.8004 62.8863 29.3636 63.3806 29.0398C63.8792 28.7159 64.495 28.554 65.2279 28.554C65.9055 28.554 66.4957 28.6989 66.9985 28.9886C67.5056 29.2784 67.8977 29.6982 68.1747 30.2479C68.4559 30.7976 68.5944 31.4645 68.5902 32.2486V38.5H66.2762V32.6065C66.2762 31.9503 66.1058 31.4368 65.7649 31.0661C65.4282 30.6953 64.9616 30.5099 64.365 30.5099C63.9602 30.5099 63.6001 30.5994 63.2848 30.7784C62.9737 30.9531 62.7287 31.2067 62.5497 31.5391C62.375 31.8714 62.2876 32.2741 62.2876 32.7472ZM82.9839 29.0078C82.9242 28.4496 82.6728 28.0149 82.2296 27.7038C81.7907 27.3928 81.2197 27.2372 80.5166 27.2372C80.0223 27.2372 79.5982 27.3118 79.2446 27.4609C78.8909 27.6101 78.6203 27.8125 78.4328 28.0682C78.2453 28.3239 78.1494 28.6158 78.1451 28.9439C78.1451 29.2166 78.2069 29.4531 78.3305 29.6534C78.4583 29.8537 78.6309 30.0241 78.8482 30.1648C79.0656 30.3011 79.3063 30.4162 79.5705 30.5099C79.8348 30.6037 80.1011 30.6825 80.3696 30.7464L81.5968 31.0533C82.0911 31.1683 82.5663 31.3239 83.0223 31.5199C83.4825 31.7159 83.8937 31.9631 84.2559 32.2614C84.6224 32.5597 84.9122 32.9197 85.1252 33.3416C85.3383 33.7635 85.4448 34.2578 85.4448 34.8246C85.4448 35.5916 85.2488 36.267 84.8568 36.8509C84.4647 37.4304 83.898 37.8842 83.1565 38.2124C82.4193 38.5362 81.5265 38.6982 80.4782 38.6982C79.4598 38.6982 78.5755 38.5405 77.8255 38.2251C77.0798 37.9098 76.496 37.4496 76.0741 36.8445C75.6565 36.2393 75.4306 35.5021 75.3965 34.6328H77.7296C77.7637 35.0888 77.9044 35.468 78.1515 35.7706C78.3987 36.0732 78.7204 36.299 79.1167 36.4482C79.5173 36.5973 79.9647 36.6719 80.459 36.6719C80.9747 36.6719 81.4264 36.5952 81.8142 36.4418C82.2062 36.2841 82.513 36.0668 82.7346 35.7898C82.9562 35.5085 83.0691 35.1804 83.0734 34.8054C83.0691 34.4645 82.969 34.1832 82.773 33.9616C82.5769 33.7358 82.3021 33.5483 81.9484 33.3991C81.599 33.2457 81.1899 33.1094 80.7211 32.9901L79.2318 32.6065C78.1536 32.3295 77.3014 31.9098 76.675 31.3473C76.0528 30.7805 75.7417 30.0284 75.7417 29.0909C75.7417 28.3196 75.9505 27.6442 76.3681 27.0646C76.79 26.4851 77.3632 26.0355 78.0876 25.7159C78.812 25.392 79.6323 25.2301 80.5485 25.2301C81.4775 25.2301 82.2914 25.392 82.9903 25.7159C83.6934 26.0355 84.2453 26.4808 84.6458 27.0518C85.0464 27.6186 85.2531 28.2706 85.2659 29.0078H82.9839ZM89.0622 38.6406C88.6744 38.6406 88.342 38.5043 88.065 38.2315C87.788 37.9588 87.6517 37.6264 87.6559 37.2344C87.6517 36.8509 87.788 36.5227 88.065 36.25C88.342 35.9773 88.6744 35.8409 89.0622 35.8409C89.4372 35.8409 89.7632 35.9773 90.0401 36.25C90.3214 36.5227 90.4642 36.8509 90.4684 37.2344C90.4642 37.4943 90.396 37.7308 90.2639 37.9439C90.136 38.157 89.9656 38.3274 89.7525 38.4553C89.5437 38.5788 89.3136 38.6406 89.0622 38.6406Z" fill="#fff"/>
<path fill-rule="evenodd" clip-rule="evenodd" d="M116.713 1.28655C116.433 1.00626 116.011 0.922818 115.645 1.07526L102.602 6.50939C102.226 6.6659 101.987 7.03862 102.001 7.44534C102.014 7.85207 102.278 8.20783 102.664 8.33871L107.887 10.1129L109.661 15.3363C109.792 15.7217 110.148 15.9857 110.555 15.9994C110.961 16.0131 111.334 15.7736 111.491 15.398L116.925 2.3545C117.077 1.98859 116.994 1.56685 116.713 1.28655Z" fill="#D1730A" stroke="#EA9536" stroke-width="1.5" stroke-linecap="round" stroke-linejoin="round"/>
</g>
<defs>
<clipPath id="clip0_52_19212">
<rect width="118" height="50" fill="white"/>
</clipPath>
</defs>
</svg>