<svg width="1.5rem" height="1.52rem" viewBox="0 0 24 26" fill="none" xmlns="http://www.w3.org/2000/svg">
<path d="M3 6C3 4.34315 4.34315 3 6 3C7.65685 3 9 4.34315 9 6V18C9 19.6569 7.65685 21 6 21C4.34315 21 3 19.6569 3 18V6Z" stroke="#3D3918" stroke-width="2"/>
<rect x="6" y="4" width="5" height="5" fill="#1C1C1C"/>
<rect x="1" y="1" width="10" height="22" rx="5" stroke="#E3CE2C" stroke-width="2"/>
<path d="M0.999977 18C0.999977 16.6739 1.52676 15.4021 2.46444 14.4644L14.4644 2.46447C15.4021 1.52678 16.6739 0.999999 18 1C19.3261 1 20.5978 1.52678 21.5355 2.46447C22.4732 3.40215 23 4.67392 23 6C23 7.32608 22.4732 8.59785 21.5355 9.53553L9.53551 21.5355C8.59783 22.4732 7.32606 23 5.99998 23C4.67389 23 3.40212 22.4732 2.46444 21.5355C1.52676 20.5978 0.999977 19.326 0.999977 18Z" stroke="#E3CE2C" stroke-width="2"/>
<path fill-rule="evenodd" clip-rule="evenodd" d="M23.8115 23.8118L6.50191 6.5022C5.83165 7.21071 5.29615 8.03629 4.92244 8.93852C4.5204 9.90912 4.31348 10.9494 4.31348 12C4.31348 13.0506 4.5204 14.0908 4.92244 15.0615C5.32448 16.0321 5.91383 16.914 6.6567 17.6569L12.6571 23.6569C14.1574 25.1572 16.1922 26 18.3139 26C20.3615 26 22.3281 25.215 23.8115 23.8118Z" fill="#1C1C1C"/>
<path d="M15.5253 20.4749L15.5253 20.4748L9.52491 14.4749C9.52489 14.4749 9.52488 14.4748 9.52487 14.4748C9.19988 14.1498 8.94208 13.764 8.7662 13.3394C8.59031 12.9148 8.49978 12.4596 8.49978 12C8.49978 11.5404 8.59031 11.0852 8.7662 10.6606C8.94209 10.236 9.1999 9.85013 9.52491 9.52513C9.84991 9.20012 10.2357 8.94231 10.6604 8.76642C11.085 8.59053 11.5402 8.5 11.9998 8.5C12.4594 8.5 12.9145 8.59053 13.3392 8.76642C13.7638 8.94231 14.1496 9.20012 14.4747 9.52513L14.4747 9.52517L20.4751 15.5251C20.4751 15.5251 20.4751 15.5252 20.4751 15.5252C21.1315 16.1815 21.5002 17.0718 21.5002 18C21.5002 18.9283 21.1315 19.8185 20.4751 20.4749C19.8187 21.1313 18.9285 21.5 18.0002 21.5C17.072 21.5 16.1817 21.1313 15.5253 20.4749Z" fill="#1C1C1C" stroke="#3D3918" stroke-width="3"/>
<path d="M23 25.77V16L17.5 10H12V12L14 16.84L23 25.77Z" fill="#1C1C1C"/>
<path d="M18.0002 23C16.6741 23 15.4024 22.4732 14.4647 21.5355L8.46425 15.5355C7.99995 15.0712 7.63166 14.52 7.38038 13.9134C7.12911 13.3068 6.99978 12.6566 6.99978 12C6.99978 11.3434 7.12911 10.6932 7.38038 10.0866C7.63165 9.47996 7.99995 8.92876 8.46425 8.46447C8.92854 8.00017 9.47973 7.63188 10.0864 7.3806C10.693 7.12933 11.3432 7 11.9998 7C12.6564 7 13.3066 7.12933 13.9132 7.3806C14.5198 7.63188 15.071 8.00017 15.5353 8.46447L21.5358 14.4645C22.4734 15.4021 23.0002 16.6739 23.0002 18C23.0002 19.3261 22.4734 20.5979 21.5358 21.5355C20.5981 22.4732 19.3263 23 18.0002 23Z" stroke="#E3CE2C" stroke-width="2"/>
<path d="M20.5721 10.49L18.4508 8.36865L15.2021 11.6173L16.9699 14.0921L20.5721 10.49Z" fill="#1C1C1C"/>
<path d="M11.9999 18.9999L21.5345 9.53585" stroke="#E3CE2C" stroke-width="2"/>
</svg>